<mxfile host="app.diagrams.net" agent="Mozilla/5.0 (Windows NT 10.0; Win64; x64) AppleWebKit/537.36 (KHTML, like Gecko) Chrome/129.0.0.0 Safari/537.36" version="24.7.17">
  <diagram id="C5RBs43oDa-KdzZeNtuy" name="Page-1">
    <mxGraphModel dx="3089" dy="1180" grid="1" gridSize="10" guides="1" tooltips="1" connect="1" arrows="1" fold="1" page="1" pageScale="1" pageWidth="827" pageHeight="1169" math="0" shadow="0">
      <root>
        <mxCell id="WIyWlLk6GJQsqaUBKTNV-0" />
        <mxCell id="WIyWlLk6GJQsqaUBKTNV-1" parent="WIyWlLk6GJQsqaUBKTNV-0" />
        <mxCell id="zS47Xuw-DA11DCwyIxi2-0" value="User" style="swimlane;fontStyle=1;align=center;verticalAlign=top;childLayout=stackLayout;horizontal=1;startSize=26;horizontalStack=0;resizeParent=1;resizeParentMax=0;resizeLast=0;collapsible=1;marginBottom=0;whiteSpace=wrap;html=1;" vertex="1" parent="WIyWlLk6GJQsqaUBKTNV-1">
          <mxGeometry x="-60" y="80" width="180" height="270" as="geometry" />
        </mxCell>
        <mxCell id="zS47Xuw-DA11DCwyIxi2-1" value="- userID: String&lt;div&gt;&lt;br&gt;&lt;div&gt;- username: String&lt;/div&gt;&lt;div&gt;&lt;br&gt;&lt;/div&gt;&lt;div&gt;- password: String&lt;/div&gt;&lt;div&gt;&lt;br&gt;&lt;/div&gt;&lt;div&gt;- role: String&lt;/div&gt;&lt;/div&gt;" style="text;strokeColor=none;fillColor=none;align=left;verticalAlign=top;spacingLeft=4;spacingRight=4;overflow=hidden;rotatable=0;points=[[0,0.5],[1,0.5]];portConstraint=eastwest;whiteSpace=wrap;html=1;" vertex="1" parent="zS47Xuw-DA11DCwyIxi2-0">
          <mxGeometry y="26" width="180" height="134" as="geometry" />
        </mxCell>
        <mxCell id="zS47Xuw-DA11DCwyIxi2-2" value="" style="line;strokeWidth=1;fillColor=none;align=left;verticalAlign=middle;spacingTop=-1;spacingLeft=3;spacingRight=3;rotatable=0;labelPosition=right;points=[];portConstraint=eastwest;strokeColor=inherit;" vertex="1" parent="zS47Xuw-DA11DCwyIxi2-0">
          <mxGeometry y="160" width="180" height="8" as="geometry" />
        </mxCell>
        <mxCell id="zS47Xuw-DA11DCwyIxi2-3" value="- login: Boolean&lt;div&gt;&lt;br&gt;&lt;div&gt;- logout(): void&lt;/div&gt;&lt;div&gt;&lt;br&gt;&lt;/div&gt;&lt;div&gt;- isAuthorized(): Boolean&lt;/div&gt;&lt;/div&gt;" style="text;strokeColor=none;fillColor=none;align=left;verticalAlign=top;spacingLeft=4;spacingRight=4;overflow=hidden;rotatable=0;points=[[0,0.5],[1,0.5]];portConstraint=eastwest;whiteSpace=wrap;html=1;" vertex="1" parent="zS47Xuw-DA11DCwyIxi2-0">
          <mxGeometry y="168" width="180" height="102" as="geometry" />
        </mxCell>
        <mxCell id="zS47Xuw-DA11DCwyIxi2-4" value="Student" style="swimlane;fontStyle=1;align=center;verticalAlign=top;childLayout=stackLayout;horizontal=1;startSize=26;horizontalStack=0;resizeParent=1;resizeParentMax=0;resizeLast=0;collapsible=1;marginBottom=0;whiteSpace=wrap;html=1;" vertex="1" parent="WIyWlLk6GJQsqaUBKTNV-1">
          <mxGeometry x="300" y="300" width="140" height="560" as="geometry" />
        </mxCell>
        <mxCell id="zS47Xuw-DA11DCwyIxi2-5" value="- studentID: Int&lt;div&gt;&lt;br&gt;&lt;div&gt;- name: String&lt;/div&gt;&lt;div&gt;&lt;br&gt;&lt;/div&gt;&lt;div&gt;- dateOfBirth: Int&lt;/div&gt;&lt;div&gt;&lt;br&gt;&lt;/div&gt;&lt;div&gt;- major: String&lt;/div&gt;&lt;div&gt;&lt;br&gt;&lt;/div&gt;&lt;div&gt;- year: String&lt;/div&gt;&lt;div&gt;&lt;br&gt;&lt;/div&gt;&lt;div&gt;- email: String&lt;/div&gt;&lt;div&gt;&lt;br&gt;&lt;/div&gt;&lt;div&gt;- phone: String&lt;/div&gt;&lt;div&gt;&lt;br&gt;&lt;/div&gt;&lt;div&gt;- gpa: Double&lt;/div&gt;&lt;div&gt;&lt;br&gt;&lt;/div&gt;&lt;div&gt;- creditsEarned: Int&lt;/div&gt;&lt;/div&gt;" style="text;strokeColor=none;fillColor=none;align=left;verticalAlign=top;spacingLeft=4;spacingRight=4;overflow=hidden;rotatable=0;points=[[0,0.5],[1,0.5]];portConstraint=eastwest;whiteSpace=wrap;html=1;" vertex="1" parent="zS47Xuw-DA11DCwyIxi2-4">
          <mxGeometry y="26" width="140" height="264" as="geometry" />
        </mxCell>
        <mxCell id="zS47Xuw-DA11DCwyIxi2-6" value="" style="line;strokeWidth=1;fillColor=none;align=left;verticalAlign=middle;spacingTop=-1;spacingLeft=3;spacingRight=3;rotatable=0;labelPosition=right;points=[];portConstraint=eastwest;strokeColor=inherit;" vertex="1" parent="zS47Xuw-DA11DCwyIxi2-4">
          <mxGeometry y="290" width="140" height="8" as="geometry" />
        </mxCell>
        <mxCell id="zS47Xuw-DA11DCwyIxi2-7" value="- getName(): String&lt;div&gt;&lt;br&gt;&lt;/div&gt;&lt;div&gt;- getDateOfBirth(): Int&lt;/div&gt;&lt;div&gt;&lt;br&gt;&lt;/div&gt;&lt;div&gt;- getMajor(): String&lt;/div&gt;&lt;div&gt;&lt;br&gt;&lt;/div&gt;&lt;div&gt;- getYear(): String&lt;/div&gt;&lt;div&gt;&lt;br&gt;&lt;/div&gt;&lt;div&gt;- getEmail(): String&lt;/div&gt;&lt;div&gt;&lt;br&gt;&lt;/div&gt;&lt;div&gt;- getPhone(): String&lt;/div&gt;&lt;div&gt;&lt;br&gt;&lt;/div&gt;&lt;div&gt;- getGPA(): Double&lt;/div&gt;&lt;div&gt;&lt;br&gt;&lt;/div&gt;&lt;div&gt;- getCredits(): Int&lt;/div&gt;" style="text;strokeColor=none;fillColor=none;align=left;verticalAlign=top;spacingLeft=4;spacingRight=4;overflow=hidden;rotatable=0;points=[[0,0.5],[1,0.5]];portConstraint=eastwest;whiteSpace=wrap;html=1;" vertex="1" parent="zS47Xuw-DA11DCwyIxi2-4">
          <mxGeometry y="298" width="140" height="262" as="geometry" />
        </mxCell>
        <mxCell id="zS47Xuw-DA11DCwyIxi2-20" value="Admin" style="swimlane;fontStyle=1;align=center;verticalAlign=top;childLayout=stackLayout;horizontal=1;startSize=26;horizontalStack=0;resizeParent=1;resizeParentMax=0;resizeLast=0;collapsible=1;marginBottom=0;whiteSpace=wrap;html=1;" vertex="1" parent="WIyWlLk6GJQsqaUBKTNV-1">
          <mxGeometry x="550" y="80" width="160" height="170" as="geometry" />
        </mxCell>
        <mxCell id="zS47Xuw-DA11DCwyIxi2-21" value="- adminID: Int" style="text;strokeColor=none;fillColor=none;align=left;verticalAlign=top;spacingLeft=4;spacingRight=4;overflow=hidden;rotatable=0;points=[[0,0.5],[1,0.5]];portConstraint=eastwest;whiteSpace=wrap;html=1;" vertex="1" parent="zS47Xuw-DA11DCwyIxi2-20">
          <mxGeometry y="26" width="160" height="26" as="geometry" />
        </mxCell>
        <mxCell id="zS47Xuw-DA11DCwyIxi2-22" value="" style="line;strokeWidth=1;fillColor=none;align=left;verticalAlign=middle;spacingTop=-1;spacingLeft=3;spacingRight=3;rotatable=0;labelPosition=right;points=[];portConstraint=eastwest;strokeColor=inherit;" vertex="1" parent="zS47Xuw-DA11DCwyIxi2-20">
          <mxGeometry y="52" width="160" height="8" as="geometry" />
        </mxCell>
        <mxCell id="zS47Xuw-DA11DCwyIxi2-23" value="&lt;div&gt;- addUser: void&lt;/div&gt;&lt;div&gt;&lt;br&gt;&lt;/div&gt;&lt;div&gt;- deleteUser: void&lt;/div&gt;&lt;div&gt;&lt;br&gt;&lt;/div&gt;&lt;div&gt;- updateUserInfo: void&lt;/div&gt;&lt;div&gt;&lt;br&gt;&lt;/div&gt;&lt;div&gt;- viewAllUsers(): void&lt;/div&gt;" style="text;strokeColor=none;fillColor=none;align=left;verticalAlign=top;spacingLeft=4;spacingRight=4;overflow=hidden;rotatable=0;points=[[0,0.5],[1,0.5]];portConstraint=eastwest;whiteSpace=wrap;html=1;" vertex="1" parent="zS47Xuw-DA11DCwyIxi2-20">
          <mxGeometry y="60" width="160" height="110" as="geometry" />
        </mxCell>
        <mxCell id="zS47Xuw-DA11DCwyIxi2-24" value="Professor" style="swimlane;fontStyle=1;align=center;verticalAlign=top;childLayout=stackLayout;horizontal=1;startSize=26;horizontalStack=0;resizeParent=1;resizeParentMax=0;resizeLast=0;collapsible=1;marginBottom=0;whiteSpace=wrap;html=1;" vertex="1" parent="WIyWlLk6GJQsqaUBKTNV-1">
          <mxGeometry x="560" y="310" width="250" height="266" as="geometry" />
        </mxCell>
        <mxCell id="zS47Xuw-DA11DCwyIxi2-25" value="- department: String&lt;div&gt;&lt;br&gt;&lt;/div&gt;&lt;div&gt;- officeLocation: String&lt;/div&gt;&lt;div&gt;&lt;br&gt;&lt;/div&gt;&lt;div&gt;- coursesTeaching: List&amp;lt;Course&amp;gt;&lt;br&gt;&lt;div&gt;&lt;br&gt;&lt;/div&gt;&lt;/div&gt;" style="text;strokeColor=none;fillColor=none;align=left;verticalAlign=top;spacingLeft=4;spacingRight=4;overflow=hidden;rotatable=0;points=[[0,0.5],[1,0.5]];portConstraint=eastwest;whiteSpace=wrap;html=1;" vertex="1" parent="zS47Xuw-DA11DCwyIxi2-24">
          <mxGeometry y="26" width="250" height="84" as="geometry" />
        </mxCell>
        <mxCell id="zS47Xuw-DA11DCwyIxi2-26" value="" style="line;strokeWidth=1;fillColor=none;align=left;verticalAlign=middle;spacingTop=-1;spacingLeft=3;spacingRight=3;rotatable=0;labelPosition=right;points=[];portConstraint=eastwest;strokeColor=inherit;" vertex="1" parent="zS47Xuw-DA11DCwyIxi2-24">
          <mxGeometry y="110" width="250" height="8" as="geometry" />
        </mxCell>
        <mxCell id="zS47Xuw-DA11DCwyIxi2-27" value="&lt;div&gt;- searchStudentByID: Int&lt;/div&gt;&lt;div&gt;&lt;br&gt;&lt;/div&gt;&lt;div&gt;- searchStudentByName: List&amp;lt;Student&amp;gt;&lt;/div&gt;&lt;div&gt;&lt;br&gt;&lt;/div&gt;&lt;div&gt;- updateStudentGPA: Double&lt;/div&gt;&lt;div&gt;&lt;br&gt;&lt;/div&gt;&lt;div&gt;- viewCourses(): List&amp;lt;Course&amp;gt;&lt;/div&gt;&lt;div&gt;&lt;br&gt;&lt;/div&gt;&lt;div&gt;- viewEnrolledStudents(): List&amp;lt;Student&amp;gt;&lt;/div&gt;" style="text;strokeColor=none;fillColor=none;align=left;verticalAlign=top;spacingLeft=4;spacingRight=4;overflow=hidden;rotatable=0;points=[[0,0.5],[1,0.5]];portConstraint=eastwest;whiteSpace=wrap;html=1;" vertex="1" parent="zS47Xuw-DA11DCwyIxi2-24">
          <mxGeometry y="118" width="250" height="148" as="geometry" />
        </mxCell>
        <mxCell id="zS47Xuw-DA11DCwyIxi2-28" value="Course" style="swimlane;fontStyle=1;align=center;verticalAlign=top;childLayout=stackLayout;horizontal=1;startSize=26;horizontalStack=0;resizeParent=1;resizeParentMax=0;resizeLast=0;collapsible=1;marginBottom=0;whiteSpace=wrap;html=1;" vertex="1" parent="WIyWlLk6GJQsqaUBKTNV-1">
          <mxGeometry x="840" y="560" width="230" height="320" as="geometry" />
        </mxCell>
        <mxCell id="zS47Xuw-DA11DCwyIxi2-29" value="- courseID: Int&lt;div&gt;&lt;br&gt;&lt;div&gt;- courseName: String&lt;/div&gt;&lt;div&gt;&lt;br&gt;&lt;/div&gt;&lt;div&gt;- creditHours: Int&lt;/div&gt;&lt;div&gt;&lt;br&gt;&lt;/div&gt;&lt;div&gt;- professor: String&lt;/div&gt;&lt;/div&gt;" style="text;strokeColor=none;fillColor=none;align=left;verticalAlign=top;spacingLeft=4;spacingRight=4;overflow=hidden;rotatable=0;points=[[0,0.5],[1,0.5]];portConstraint=eastwest;whiteSpace=wrap;html=1;" vertex="1" parent="zS47Xuw-DA11DCwyIxi2-28">
          <mxGeometry y="26" width="230" height="134" as="geometry" />
        </mxCell>
        <mxCell id="zS47Xuw-DA11DCwyIxi2-30" value="" style="line;strokeWidth=1;fillColor=none;align=left;verticalAlign=middle;spacingTop=-1;spacingLeft=3;spacingRight=3;rotatable=0;labelPosition=right;points=[];portConstraint=eastwest;strokeColor=inherit;" vertex="1" parent="zS47Xuw-DA11DCwyIxi2-28">
          <mxGeometry y="160" width="230" height="8" as="geometry" />
        </mxCell>
        <mxCell id="zS47Xuw-DA11DCwyIxi2-31" value="- getCourseDetails(): String&lt;div&gt;&lt;br&gt;&lt;div&gt;- addStudent(): void&lt;/div&gt;&lt;div&gt;&lt;br&gt;&lt;/div&gt;&lt;div&gt;- removeStudent(): void&lt;/div&gt;&lt;/div&gt;&lt;div&gt;&lt;br&gt;&lt;/div&gt;&lt;div&gt;- getEnrolledStudents(): List&amp;lt;Student&amp;gt;&lt;/div&gt;" style="text;strokeColor=none;fillColor=none;align=left;verticalAlign=top;spacingLeft=4;spacingRight=4;overflow=hidden;rotatable=0;points=[[0,0.5],[1,0.5]];portConstraint=eastwest;whiteSpace=wrap;html=1;" vertex="1" parent="zS47Xuw-DA11DCwyIxi2-28">
          <mxGeometry y="168" width="230" height="152" as="geometry" />
        </mxCell>
        <mxCell id="zS47Xuw-DA11DCwyIxi2-32" value="SMS" style="swimlane;fontStyle=1;align=center;verticalAlign=top;childLayout=stackLayout;horizontal=1;startSize=26;horizontalStack=0;resizeParent=1;resizeParentMax=0;resizeLast=0;collapsible=1;marginBottom=0;whiteSpace=wrap;html=1;" vertex="1" parent="WIyWlLk6GJQsqaUBKTNV-1">
          <mxGeometry x="-80" y="600" width="210" height="370" as="geometry" />
        </mxCell>
        <mxCell id="zS47Xuw-DA11DCwyIxi2-33" value="- students: List&amp;lt;Student&amp;gt;&amp;nbsp;&lt;div&gt;&lt;br&gt;&lt;div&gt;- courses: List&amp;lt;Course&amp;gt;&lt;br&gt;&lt;/div&gt;&lt;div&gt;&lt;br&gt;&lt;/div&gt;&lt;div&gt;- users: List&amp;lt;User&amp;gt;&lt;/div&gt;&lt;div&gt;&lt;br&gt;&lt;/div&gt;&lt;div&gt;&lt;br&gt;&lt;/div&gt;&lt;/div&gt;" style="text;strokeColor=none;fillColor=none;align=left;verticalAlign=top;spacingLeft=4;spacingRight=4;overflow=hidden;rotatable=0;points=[[0,0.5],[1,0.5]];portConstraint=eastwest;whiteSpace=wrap;html=1;" vertex="1" parent="zS47Xuw-DA11DCwyIxi2-32">
          <mxGeometry y="26" width="210" height="104" as="geometry" />
        </mxCell>
        <mxCell id="zS47Xuw-DA11DCwyIxi2-34" value="" style="line;strokeWidth=1;fillColor=none;align=left;verticalAlign=middle;spacingTop=-1;spacingLeft=3;spacingRight=3;rotatable=0;labelPosition=right;points=[];portConstraint=eastwest;strokeColor=inherit;" vertex="1" parent="zS47Xuw-DA11DCwyIxi2-32">
          <mxGeometry y="130" width="210" height="8" as="geometry" />
        </mxCell>
        <mxCell id="zS47Xuw-DA11DCwyIxi2-35" value="- addStudent(): void&lt;div&gt;&lt;br&gt;&lt;div&gt;- removeStudent(): void&lt;/div&gt;&lt;div&gt;&lt;br&gt;&lt;/div&gt;&lt;div&gt;- getStudentByID(): List&amp;lt;Student&amp;gt;&lt;/div&gt;&lt;/div&gt;&lt;div&gt;&lt;br&gt;&lt;/div&gt;&lt;div&gt;- getStudentByName(): List&amp;lt;Student&amp;gt;&lt;/div&gt;&lt;div&gt;&lt;br&gt;&lt;/div&gt;&lt;div&gt;- addCourse(): void&lt;/div&gt;&lt;div&gt;&lt;br&gt;&lt;/div&gt;&lt;div&gt;- removeCourse(): void&lt;/div&gt;&lt;div&gt;&lt;br&gt;&lt;/div&gt;&lt;div&gt;- getCourseByID(): void&lt;/div&gt;" style="text;strokeColor=none;fillColor=none;align=left;verticalAlign=top;spacingLeft=4;spacingRight=4;overflow=hidden;rotatable=0;points=[[0,0.5],[1,0.5]];portConstraint=eastwest;whiteSpace=wrap;html=1;" vertex="1" parent="zS47Xuw-DA11DCwyIxi2-32">
          <mxGeometry y="138" width="210" height="232" as="geometry" />
        </mxCell>
        <mxCell id="zS47Xuw-DA11DCwyIxi2-36" value="" style="endArrow=block;endSize=16;endFill=0;html=1;rounded=0;exitX=1.012;exitY=0.463;exitDx=0;exitDy=0;exitPerimeter=0;entryX=-0.004;entryY=0.247;entryDx=0;entryDy=0;entryPerimeter=0;" edge="1" parent="WIyWlLk6GJQsqaUBKTNV-1" source="zS47Xuw-DA11DCwyIxi2-1" target="zS47Xuw-DA11DCwyIxi2-23">
          <mxGeometry width="160" relative="1" as="geometry">
            <mxPoint x="200.00000000000023" y="230.9739999999999" as="sourcePoint" />
            <mxPoint x="251.26" y="130" as="targetPoint" />
          </mxGeometry>
        </mxCell>
        <mxCell id="zS47Xuw-DA11DCwyIxi2-37" value="" style="endArrow=block;endSize=16;endFill=0;html=1;rounded=0;exitX=1.006;exitY=0.322;exitDx=0;exitDy=0;exitPerimeter=0;" edge="1" parent="WIyWlLk6GJQsqaUBKTNV-1" source="zS47Xuw-DA11DCwyIxi2-3">
          <mxGeometry width="160" relative="1" as="geometry">
            <mxPoint x="120" y="253.45038167938947" as="sourcePoint" />
            <mxPoint x="685" y="310" as="targetPoint" />
            <Array as="points">
              <mxPoint x="685" y="280" />
            </Array>
          </mxGeometry>
        </mxCell>
        <mxCell id="zS47Xuw-DA11DCwyIxi2-39" value="1" style="text;html=1;align=center;verticalAlign=middle;resizable=0;points=[];autosize=1;strokeColor=none;fillColor=none;" vertex="1" parent="WIyWlLk6GJQsqaUBKTNV-1">
          <mxGeometry x="120" y="140" width="30" height="30" as="geometry" />
        </mxCell>
        <mxCell id="zS47Xuw-DA11DCwyIxi2-40" value="1" style="text;html=1;align=center;verticalAlign=middle;resizable=0;points=[];autosize=1;strokeColor=none;fillColor=none;" vertex="1" parent="WIyWlLk6GJQsqaUBKTNV-1">
          <mxGeometry x="500" y="140" width="30" height="30" as="geometry" />
        </mxCell>
        <mxCell id="zS47Xuw-DA11DCwyIxi2-41" value="1" style="text;html=1;align=center;verticalAlign=middle;resizable=0;points=[];autosize=1;strokeColor=none;fillColor=none;" vertex="1" parent="WIyWlLk6GJQsqaUBKTNV-1">
          <mxGeometry x="120" y="280" width="30" height="30" as="geometry" />
        </mxCell>
        <mxCell id="zS47Xuw-DA11DCwyIxi2-42" value="1" style="text;html=1;align=center;verticalAlign=middle;resizable=0;points=[];autosize=1;strokeColor=none;fillColor=none;" vertex="1" parent="WIyWlLk6GJQsqaUBKTNV-1">
          <mxGeometry x="650" y="280" width="30" height="30" as="geometry" />
        </mxCell>
        <mxCell id="zS47Xuw-DA11DCwyIxi2-45" value="" style="endArrow=none;startArrow=none;endFill=0;startFill=0;endSize=8;html=1;verticalAlign=bottom;labelBackgroundColor=none;strokeWidth=3;rounded=0;exitX=0.555;exitY=-0.003;exitDx=0;exitDy=0;exitPerimeter=0;" edge="1" parent="WIyWlLk6GJQsqaUBKTNV-1" source="zS47Xuw-DA11DCwyIxi2-0">
          <mxGeometry width="160" relative="1" as="geometry">
            <mxPoint x="40" y="77" as="sourcePoint" />
            <mxPoint x="640" y="80" as="targetPoint" />
            <Array as="points">
              <mxPoint x="40" y="10" />
              <mxPoint x="640" y="10" />
            </Array>
          </mxGeometry>
        </mxCell>
        <mxCell id="zS47Xuw-DA11DCwyIxi2-47" value="1...*" style="text;html=1;align=center;verticalAlign=middle;resizable=0;points=[];autosize=1;strokeColor=none;fillColor=none;" vertex="1" parent="WIyWlLk6GJQsqaUBKTNV-1">
          <mxGeometry x="45" y="50" width="40" height="30" as="geometry" />
        </mxCell>
        <mxCell id="zS47Xuw-DA11DCwyIxi2-48" value="1..*" style="text;html=1;align=center;verticalAlign=middle;resizable=0;points=[];autosize=1;strokeColor=none;fillColor=none;" vertex="1" parent="WIyWlLk6GJQsqaUBKTNV-1">
          <mxGeometry x="590" y="50" width="40" height="30" as="geometry" />
        </mxCell>
        <mxCell id="zS47Xuw-DA11DCwyIxi2-49" value="" style="endArrow=none;startArrow=none;endFill=0;startFill=0;endSize=8;html=1;verticalAlign=bottom;labelBackgroundColor=none;strokeWidth=3;rounded=0;entryX=0.352;entryY=-0.007;entryDx=0;entryDy=0;entryPerimeter=0;" edge="1" parent="WIyWlLk6GJQsqaUBKTNV-1" target="zS47Xuw-DA11DCwyIxi2-28">
          <mxGeometry width="160" relative="1" as="geometry">
            <mxPoint x="810" y="410" as="sourcePoint" />
            <mxPoint x="970" y="410" as="targetPoint" />
            <Array as="points">
              <mxPoint x="920" y="410" />
            </Array>
          </mxGeometry>
        </mxCell>
        <mxCell id="zS47Xuw-DA11DCwyIxi2-50" value="1" style="text;html=1;align=center;verticalAlign=middle;resizable=0;points=[];autosize=1;strokeColor=none;fillColor=none;" vertex="1" parent="WIyWlLk6GJQsqaUBKTNV-1">
          <mxGeometry x="810" y="380" width="30" height="30" as="geometry" />
        </mxCell>
        <mxCell id="zS47Xuw-DA11DCwyIxi2-51" value="1...3" style="text;html=1;align=center;verticalAlign=middle;resizable=0;points=[];autosize=1;strokeColor=none;fillColor=none;" vertex="1" parent="WIyWlLk6GJQsqaUBKTNV-1">
          <mxGeometry x="870" y="530" width="50" height="30" as="geometry" />
        </mxCell>
        <mxCell id="zS47Xuw-DA11DCwyIxi2-52" value="" style="endArrow=none;startArrow=none;endFill=0;startFill=0;endSize=8;html=1;verticalAlign=bottom;labelBackgroundColor=none;strokeWidth=3;rounded=0;exitX=0.481;exitY=0.998;exitDx=0;exitDy=0;exitPerimeter=0;entryX=-0.007;entryY=0.476;entryDx=0;entryDy=0;entryPerimeter=0;" edge="1" parent="WIyWlLk6GJQsqaUBKTNV-1" source="zS47Xuw-DA11DCwyIxi2-27" target="zS47Xuw-DA11DCwyIxi2-29">
          <mxGeometry width="160" relative="1" as="geometry">
            <mxPoint x="650" y="650" as="sourcePoint" />
            <mxPoint x="810" y="650" as="targetPoint" />
            <Array as="points">
              <mxPoint x="680" y="650" />
            </Array>
          </mxGeometry>
        </mxCell>
        <mxCell id="zS47Xuw-DA11DCwyIxi2-54" value="1" style="text;html=1;align=center;verticalAlign=middle;resizable=0;points=[];autosize=1;strokeColor=none;fillColor=none;" vertex="1" parent="WIyWlLk6GJQsqaUBKTNV-1">
          <mxGeometry x="680" y="576" width="30" height="30" as="geometry" />
        </mxCell>
        <mxCell id="zS47Xuw-DA11DCwyIxi2-55" value="" style="endArrow=diamondThin;endFill=0;endSize=24;html=1;rounded=0;exitX=-0.011;exitY=0.705;exitDx=0;exitDy=0;exitPerimeter=0;entryX=1.004;entryY=0.313;entryDx=0;entryDy=0;entryPerimeter=0;" edge="1" parent="WIyWlLk6GJQsqaUBKTNV-1" source="zS47Xuw-DA11DCwyIxi2-29" target="zS47Xuw-DA11DCwyIxi2-7">
          <mxGeometry width="160" relative="1" as="geometry">
            <mxPoint x="810" y="680.9559999999999" as="sourcePoint" />
            <mxPoint x="442.76000000000005" y="680.0039999999998" as="targetPoint" />
          </mxGeometry>
        </mxCell>
        <mxCell id="zS47Xuw-DA11DCwyIxi2-56" value="1" style="text;html=1;align=center;verticalAlign=middle;resizable=0;points=[];autosize=1;strokeColor=none;fillColor=none;" vertex="1" parent="WIyWlLk6GJQsqaUBKTNV-1">
          <mxGeometry x="810" y="680" width="30" height="30" as="geometry" />
        </mxCell>
        <mxCell id="zS47Xuw-DA11DCwyIxi2-57" value="10..25" style="text;html=1;align=center;verticalAlign=middle;resizable=0;points=[];autosize=1;strokeColor=none;fillColor=none;" vertex="1" parent="WIyWlLk6GJQsqaUBKTNV-1">
          <mxGeometry x="435" y="680" width="60" height="30" as="geometry" />
        </mxCell>
        <mxCell id="zS47Xuw-DA11DCwyIxi2-58" value="" style="endArrow=diamondThin;endFill=0;endSize=24;html=1;rounded=0;exitX=0.5;exitY=0;exitDx=0;exitDy=0;entryX=-0.011;entryY=0.44;entryDx=0;entryDy=0;entryPerimeter=0;" edge="1" parent="WIyWlLk6GJQsqaUBKTNV-1" source="zS47Xuw-DA11DCwyIxi2-32" target="zS47Xuw-DA11DCwyIxi2-5">
          <mxGeometry width="160" relative="1" as="geometry">
            <mxPoint x="-154.5" y="480" as="sourcePoint" />
            <mxPoint x="25" y="440" as="targetPoint" />
            <Array as="points">
              <mxPoint x="25" y="442" />
            </Array>
          </mxGeometry>
        </mxCell>
        <mxCell id="zS47Xuw-DA11DCwyIxi2-60" value="1...*" style="text;html=1;align=center;verticalAlign=middle;resizable=0;points=[];autosize=1;strokeColor=none;fillColor=none;" vertex="1" parent="WIyWlLk6GJQsqaUBKTNV-1">
          <mxGeometry x="235" y="450" width="40" height="30" as="geometry" />
        </mxCell>
        <mxCell id="zS47Xuw-DA11DCwyIxi2-61" value="" style="endArrow=diamondThin;endFill=0;endSize=24;html=1;rounded=0;exitX=1.001;exitY=0.782;exitDx=0;exitDy=0;exitPerimeter=0;entryX=0.349;entryY=1.004;entryDx=0;entryDy=0;entryPerimeter=0;" edge="1" parent="WIyWlLk6GJQsqaUBKTNV-1" source="zS47Xuw-DA11DCwyIxi2-35" target="zS47Xuw-DA11DCwyIxi2-31">
          <mxGeometry width="160" relative="1" as="geometry">
            <mxPoint x="221" y="920" as="sourcePoint" />
            <mxPoint x="920" y="921" as="targetPoint" />
            <Array as="points">
              <mxPoint x="920" y="919" />
            </Array>
          </mxGeometry>
        </mxCell>
        <mxCell id="zS47Xuw-DA11DCwyIxi2-63" value="1..*" style="text;html=1;align=center;verticalAlign=middle;resizable=0;points=[];autosize=1;strokeColor=none;fillColor=none;" vertex="1" parent="WIyWlLk6GJQsqaUBKTNV-1">
          <mxGeometry x="875" y="880" width="40" height="30" as="geometry" />
        </mxCell>
        <mxCell id="zS47Xuw-DA11DCwyIxi2-65" value="" style="endArrow=diamondThin;endFill=0;endSize=24;html=1;rounded=0;exitX=0.191;exitY=-0.001;exitDx=0;exitDy=0;entryX=0.111;entryY=1.004;entryDx=0;entryDy=0;entryPerimeter=0;exitPerimeter=0;" edge="1" parent="WIyWlLk6GJQsqaUBKTNV-1" source="zS47Xuw-DA11DCwyIxi2-32" target="zS47Xuw-DA11DCwyIxi2-3">
          <mxGeometry width="160" relative="1" as="geometry">
            <mxPoint x="-11" y="553.4759999999999" as="sourcePoint" />
            <mxPoint x="-380" y="552.52" as="targetPoint" />
          </mxGeometry>
        </mxCell>
        <mxCell id="zS47Xuw-DA11DCwyIxi2-66" value="1...*" style="text;html=1;align=center;verticalAlign=middle;resizable=0;points=[];autosize=1;strokeColor=none;fillColor=none;" vertex="1" parent="WIyWlLk6GJQsqaUBKTNV-1">
          <mxGeometry x="-40" y="360" width="40" height="30" as="geometry" />
        </mxCell>
      </root>
    </mxGraphModel>
  </diagram>
</mxfile>
